<!DOCTYPE svg PUBLIC "-//W3C//DTD SVG 1.1//EN" "http://www.w3.org/Graphics/SVG/1.1/DTD/svg11.dtd">
<!-- Uploaded to: SVG Repo, www.svgrepo.com, Transformed by: SVG Repo Mixer Tools -->
<svg fill="#000000" height="256px" width="256px" version="1.1" id="Layer_1" xmlns="http://www.w3.org/2000/svg" xmlns:xlink="http://www.w3.org/1999/xlink" viewBox="0 0 512 512" xml:space="preserve" stroke="#000000">
<g id="SVGRepo_bgCarrier" stroke-width="0"/>
<g id="SVGRepo_tracerCarrier" stroke-linecap="round" stroke-linejoin="round"/>
<g id="SVGRepo_iconCarrier"> <g> <g> <path d="M380.541,82.973h-16.145C344.786,33.399,296.622,0,242.162,0C171.395,0,113.51,56.201,110.801,126.316 c-55.037,9.793-96.963,57.997-96.963,115.806c0,64.857,52.765,117.622,117.622,117.622h16.145 c19.61,49.574,67.774,82.973,122.234,82.973c70.677,0,128.506-56.065,131.35-126.057c55.278-9.841,96.974-58.616,96.974-116.061 C498.162,135.74,445.397,82.973,380.541,82.973z M297.514,283.629h-83.027c-8.395,0-15.963-5.058-19.177-12.814 c-3.212-7.756-1.436-16.684,4.5-22.621l47.593-47.594h-32.916c-11.463,0-20.757-9.293-20.757-20.757s9.294-20.757,20.757-20.757 h83.027c8.395,0,15.963,5.058,19.176,12.814c3.212,7.756,1.436,16.684-4.5,22.621l-47.594,47.594h32.917 c11.463,0,20.757,9.293,20.757,20.757S308.977,283.629,297.514,283.629z"/> </g> </g> <g> <g> <path d="M76.108,387.459c-34.337,0-62.27,27.933-62.27,62.27c0,34.336,27.933,62.27,62.27,62.27s62.27-27.936,62.27-62.27 C138.378,415.393,110.444,387.459,76.108,387.459z"/> </g> </g> </g>
</svg>